<?xml version="1.0" standalone="no"?>
<!DOCTYPE svg PUBLIC "-//W3C//DTD SVG 20010904//EN"
 "http://www.w3.org/TR/2001/REC-SVG-20010904/DTD/svg10.dtd">
<svg version="1.0" xmlns="http://www.w3.org/2000/svg"
 width="1024.000000pt" height="1024.000000pt" viewBox="0 0 1024.000000 1024.000000"
 preserveAspectRatio="xMidYMid meet">

<g transform="translate(0.000000,1024.000000) scale(0.100000,-0.100000)"
fill="#000000" stroke="none">
<path d="M4880 7360 c-550 -98 -1011 -497 -1179 -1023 -50 -158 -62 -231 -68
-418 -6 -193 4 -297 42 -450 26 -103 80 -250 97 -260 5 -3 9 -10 9 -15 0 -5 2
-17 5 -27 5 -15 8 -16 22 -5 15 12 16 11 4 -4 -15 -19 -11 -29 41 -111 18 -27
36 -46 44 -43 7 3 15 0 19 -6 4 -6 3 -8 -4 -4 -22 13 -21 -12 2 -37 13 -13 26
-32 29 -41 4 -9 12 -16 19 -16 9 0 8 3 -2 10 -19 12 -4 40 28 55 26 11 29 30
6 39 -29 11 -6 21 41 18 47 -4 47 -4 43 -37 -2 -19 0 -31 4 -29 4 3 8 32 8 65
0 38 4 58 10 54 6 -3 10 -28 10 -56 0 -27 5 -49 10 -49 6 0 10 21 10 48 1 39
3 44 12 28 6 -11 8 -39 5 -69 -5 -39 -4 -48 5 -39 7 7 20 12 31 12 10 0 26 8
35 17 16 16 16 16 -3 9 -44 -17 -50 -15 -51 18 -1 29 0 29 9 9 5 -13 14 -23
19 -23 11 0 10 17 -2 25 -5 3 -10 11 -10 18 0 6 7 1 16 -11 8 -12 22 -22 30
-22 17 0 18 -12 2 -28 -9 -9 -9 -12 0 -12 7 0 17 -10 22 -22 8 -22 9 -22 9 5
1 20 -3 26 -11 21 -10 -6 -10 -5 -1 8 7 8 9 19 5 24 -4 5 -3 5 2 1 18 -14 27
-90 12 -100 -13 -9 39 -1 55 8 6 4 17 -2 25 -13 7 -11 25 -23 39 -26 16 -4 23
-11 19 -18 -4 -7 -3 -8 5 -4 13 9 55 -15 89 -51 12 -13 27 -21 32 -18 16 10 1
25 -18 18 -9 -3 -14 -3 -10 2 6 6 -93 85 -107 85 -2 0 -43 37 -91 83 -47 45
-90 82 -94 82 -5 0 -12 4 -17 9 -5 5 -2 6 6 1 9 -5 12 -3 9 6 -3 8 -11 13 -17
11 -6 -1 -10 1 -9 5 2 5 -18 40 -43 78 -94 142 -145 258 -186 422 -25 99 -28
124 -27 293 1 174 2 192 32 303 57 218 168 412 322 567 369 371 922 464 1415
240 213 -97 424 -298 548 -522 30 -56 38 -60 77 -45 8 3 62 22 120 43 58 20
107 38 109 40 7 6 -58 134 -105 206 -234 362 -608 603 -1044 673 -133 21 -385
19 -520 -5z m-773 -2252 c-3 -8 -6 -5 -6 6 -1 11 2 17 5 13 3 -3 4 -12 1 -19z
m-193 -3 c-4 -8 -11 -12 -16 -9 -6 4 -5 10 3 15 19 12 19 11 13 -6z m-36 -15
c4 -13 3 -13 -11 -2 -9 8 -22 10 -28 6 -8 -4 -9 -3 -5 5 10 16 38 10 44 -9z
m25 -40 c3 -11 2 -22 -2 -24 -4 -3 -8 6 -9 20 -2 29 4 31 11 4z m177 5 c0 -8
-7 -15 -16 -15 -14 0 -14 3 -4 15 7 8 14 15 16 15 2 0 4 -7 4 -15z m-121 -39
c33 -33 33 -34 10 -38 -12 -1 -24 -9 -27 -17 -3 -9 0 -11 8 -6 9 5 11 4 6 -4
-11 -17 -37 6 -29 25 3 8 1 20 -5 27 -10 13 -12 47 -2 47 3 0 21 -15 39 -34z
m358 -112 c-3 -3 -12 -4 -19 -1 -8 3 -5 6 6 6 11 1 17 -2 13 -5z"/>
<path d="M7404 6801 c-150 -68 -208 -239 -133 -389 32 -65 83 -115 137 -134
31 -12 33 -15 30 -57 -3 -41 -5 -45 -41 -57 -88 -30 -174 -123 -196 -209 l-11
-45 -563 0 -562 0 -19 45 c-50 122 -211 173 -337 107 -140 -73 -168 -257 -58
-377 110 -120 315 -90 390 56 l19 39 566 -2 566 -3 19 -51 c27 -73 88 -137
163 -174 l64 -32 7 -64 7 -64 -51 -49 c-28 -27 -51 -54 -51 -60 0 -8 -169 -11
-554 -11 l-554 0 -27 -47 c-78 -135 -236 -305 -363 -392 -67 -45 -231 -131
-251 -131 -7 0 -9 -5 -5 -12 5 -8 2 -9 -9 -5 -9 3 -40 -2 -69 -12 l-53 -18 42
1 c23 0 37 4 31 7 -6 4 6 7 27 7 28 0 34 -3 24 -10 -11 -8 -11 -9 2 -5 9 3 23
0 30 -6 7 -7 6 -3 -4 9 -16 20 -14 34 5 34 5 0 7 -4 3 -9 -3 -6 5 -15 17 -21
21 -10 22 -10 5 4 -18 14 -18 14 0 19 17 4 17 5 0 6 -10 0 -15 6 -12 11 4 6
11 8 16 4 6 -3 18 0 27 8 9 8 36 14 60 14 34 -1 39 1 27 10 -14 10 -13 13 2
25 9 8 14 10 12 4 -7 -13 22 -40 44 -41 9 -1 15 2 12 6 -3 5 1 11 7 14 7 3 0
3 -17 -1 -37 -7 -31 0 12 15 28 9 35 8 58 -14 14 -13 35 -24 46 -24 10 0 19
-4 19 -9 0 -5 9 -11 21 -14 17 -5 20 -2 16 13 -3 13 0 17 9 13 8 -3 14 -11 14
-19 0 -15 10 -17 36 -7 16 6 16 7 -2 14 -15 6 -14 7 8 6 15 -1 24 -5 22 -9 -3
-5 13 -6 35 -4 29 3 39 0 34 -8 -3 -6 15 9 40 33 25 24 43 49 40 54 -3 6 -1 7
5 3 15 -9 123 114 198 226 35 53 67 104 70 112 5 14 55 16 425 16 l419 0 38
-38 c66 -66 161 -76 239 -25 85 56 81 228 -7 280 -29 17 -30 20 -30 90 0 61 3
75 18 80 93 31 167 95 210 183 23 47 27 68 27 140 0 71 -4 94 -26 141 -36 75
-97 135 -176 171 -63 28 -64 29 -61 66 3 32 7 38 36 46 19 5 55 29 81 52 152
137 118 384 -64 470 -64 30 -170 33 -231 5z m191 -141 c60 -37 81 -118 48
-187 -22 -46 -67 -73 -123 -73 -82 0 -140 60 -140 145 0 45 31 100 68 120 39
21 109 19 147 -5z m0 -629 c107 -49 147 -168 92 -272 -83 -156 -317 -122 -356
51 -35 157 121 287 264 221z m-1714 -81 c47 -26 64 -118 29 -163 -64 -81 -190
-38 -190 65 0 78 93 134 161 98z m1667 -733 c3 -23 0 -27 -21 -27 -29 0 -43
26 -26 47 18 21 44 11 47 -20z m-1634 -383 c3 -8 2 -12 -4 -9 -6 3 -10 10 -10
16 0 14 7 11 14 -7z m356 0 c0 -8 -19 -13 -24 -6 -3 5 1 9 9 9 8 0 15 -2 15
-3z m-432 -44 c-24 -32 -33 -36 -44 -18 -4 7 -3 8 5 4 7 -5 20 3 32 18 28 36
35 33 7 -4z m84 6 c7 4 8 2 4 -4 -12 -19 -36 -15 -29 5 4 11 8 13 11 5 2 -7 9
-9 14 -6z m280 -29 c-12 -13 -20 -26 -16 -29 3 -3 0 -9 -7 -14 -8 -4 -10 -3
-5 4 4 7 1 12 -6 13 -10 0 -11 2 0 6 10 4 10 8 0 21 -11 15 -11 15 3 4 13 -10
19 -9 29 3 7 8 15 15 18 15 3 0 -4 -10 -16 -23z"/>
<path d="M4586 6735 c-86 -31 -146 -118 -146 -215 0 -91 44 -162 126 -204 108
-54 252 -8 309 98 l20 36 86 0 86 0 5 -587 c3 -324 4 -590 3 -593 -2 -3 -46
-4 -99 -2 -88 3 -96 5 -96 23 0 29 -82 106 -126 118 -59 16 -134 13 -181 -8
-50 -23 -86 -58 -77 -73 4 -7 3 -8 -4 -4 -32 19 -60 -122 -39 -196 7 -28 37
-40 37 -15 0 18 37 39 46 26 3 -6 12 -8 20 -5 7 3 16 1 19 -5 4 -5 10 -7 15
-4 9 6 -11 55 -22 55 -4 0 -5 7 -1 16 5 15 3 15 -26 0 -17 -9 -31 -13 -32 -9
0 5 -2 16 -4 25 -2 14 1 15 21 8 16 -7 24 -6 24 1 0 6 7 8 16 5 13 -5 15 -2
11 14 -3 11 0 23 5 27 7 4 8 1 3 -8 -5 -8 3 -4 16 8 15 13 41 22 71 25 25 1
45 1 42 -1 -2 -2 8 -17 21 -33 14 -16 25 -41 25 -54 0 -33 -25 -81 -49 -94
-25 -13 -78 -13 -86 0 -4 6 -16 8 -27 4 -13 -4 -24 -1 -29 7 -5 9 -9 9 -9 3 0
-7 11 -19 25 -28 14 -9 23 -22 19 -28 -4 -7 1 -8 16 -3 17 6 21 4 14 -6 -6
-10 -3 -10 11 1 17 14 17 15 -7 18 -24 3 -49 32 -28 32 6 0 10 -4 10 -9 0 -5
21 -12 48 -17 31 -5 39 -9 25 -12 -36 -6 -27 -17 15 -18 77 -1 103 -7 97 -23
-3 -9 6 -4 20 9 26 24 68 94 61 101 -2 2 2 10 9 16 9 8 16 9 20 3 3 -6 1 -10
-4 -10 -6 0 -11 -3 -11 -7 0 -5 112 -6 249 -3 195 4 247 2 244 -7 -3 -7 7 -33
21 -58 24 -41 36 -50 59 -46 4 0 6 -5 5 -11 -5 -22 91 -48 147 -42 93 12 148
53 186 138 43 97 3 219 -88 273 -54 31 -128 40 -191 23 -50 -13 -114 -67 -132
-110 l-12 -30 -89 0 -89 0 0 590 0 590 89 0 c87 0 89 -1 95 -25 11 -44 79
-103 141 -120 233 -68 398 224 217 387 -110 100 -285 67 -357 -66 l-20 -36
-242 0 -243 0 -19 38 c-53 103 -171 148 -285 107z m145 -144 c60 -60 21 -161
-61 -161 -75 0 -122 91 -77 151 36 47 96 51 138 10z m913 18 c38 -17 58 -67
45 -112 -5 -20 -20 -43 -32 -52 -59 -41 -147 7 -147 80 0 27 8 44 29 66 31 31
64 36 105 18z m-1084 -1294 c0 -2 -10 -9 -22 -15 -22 -11 -22 -10 -4 4 21 17
26 19 26 11z m1105 -51 c36 -39 35 -106 -1 -139 -38 -35 -87 -34 -125 4 -38
39 -39 87 -3 130 35 42 93 44 129 5z m-604 -51 c13 -16 12 -17 -3 -4 -10 7
-18 15 -18 17 0 8 8 3 21 -13z m-561 -45 c0 -16 -20 -7 -30 12 -10 19 -10 20
9 8 12 -7 21 -16 21 -20z m301 7 c5 4 6 -1 2 -10 -5 -13 -7 -14 -14 -3 -5 7
-8 18 -8 23 0 6 3 4 6 -3 2 -6 9 -10 14 -7z m154 -23 c-3 -3 -11 0 -18 7 -9
10 -8 11 6 5 10 -3 15 -9 12 -12z m-155 -17 c5 3 7 -7 4 -22 -8 -41 -55 -61
-68 -28 -3 8 -1 15 5 15 6 0 7 6 3 13 -6 10 -4 10 7 0 17 -17 26 -16 33 3 4
11 2 15 -8 11 -10 -4 -12 0 -8 15 4 18 6 18 14 4 5 -9 13 -14 18 -11z m27 -30
c0 -8 -4 -15 -9 -15 -10 0 -11 14 -1 23 9 10 10 9 10 -8z m-3 -33 c3 -5 -1 -9
-9 -9 -8 0 -12 4 -9 9 3 4 7 8 9 8 2 0 6 -4 9 -8z"/>
<path d="M4510 5112 c0 -5 7 -15 15 -22 8 -7 15 -9 15 -6 0 4 -7 14 -15 22 -8
9 -15 11 -15 6z"/>
<path d="M4479 5074 c5 -11 17 -26 25 -33 23 -19 34 15 12 37 -9 10 -16 12
-16 5 0 -7 5 -15 10 -18 6 -3 10 -11 10 -16 0 -6 -12 3 -26 18 -18 20 -22 22
-15 7z"/>
<path d="M4687 5043 c-12 -11 -7 -23 9 -23 10 0 14 -6 11 -14 -7 -17 19 -30
36 -19 11 7 16 9 35 12 5 0 9 8 9 16 0 9 -5 14 -11 12 -6 -3 -10 -8 -9 -13 1
-5 -9 -9 -22 -9 -17 0 -21 3 -13 12 6 7 14 10 19 7 5 -3 9 0 9 5 0 15 -13 14
-29 -1 -10 -11 -15 -10 -25 4 -7 10 -16 15 -19 11z"/>
<path d="M4630 5030 c0 -5 5 -10 11 -10 5 0 7 5 4 10 -3 6 -8 10 -11 10 -2 0
-4 -4 -4 -10z"/>
<path d="M4540 5021 c0 -6 4 -13 10 -16 6 -3 7 1 4 9 -7 18 -14 21 -14 7z"/>
<path d="M4570 5000 c0 -11 48 -25 57 -16 4 3 -3 6 -15 6 -12 0 -22 5 -22 10
0 6 -4 10 -10 10 -5 0 -10 -4 -10 -10z"/>
<path d="M4636 4996 c8 -21 36 -29 46 -14 11 18 10 28 -2 28 -5 0 -10 -8 -10
-17 -1 -17 -1 -17 -14 0 -16 21 -27 22 -20 3z"/>
<path d="M3984 4945 c-4 -8 -4 -21 -1 -29 3 -7 1 -18 -5 -24 -12 -12 59 -95
73 -86 5 3 9 -1 9 -9 0 -8 6 -20 13 -26 10 -8 14 -7 14 4 0 8 -4 12 -9 9 -4
-3 -8 5 -8 18 0 13 -4 29 -9 37 -7 10 -5 19 6 26 14 10 12 11 -8 9 -13 -1 -26
-3 -28 -3 -2 -1 2 -8 9 -16 11 -13 11 -18 0 -28 -9 -8 -11 -9 -6 0 3 6 -5 20
-18 31 -17 13 -22 22 -15 29 8 8 7 13 0 17 -15 10 -14 43 2 49 9 4 9 6 -1 6
-7 1 -15 -6 -18 -14z"/>
<path d="M4124 4888 c-4 -6 -3 -8 4 -4 6 3 15 -2 21 -11 9 -16 10 -16 11 -2 0
20 -27 33 -36 17z"/>
<path d="M4338 4843 c7 -3 16 -2 19 1 4 3 -2 6 -13 5 -11 0 -14 -3 -6 -6z"/>
<path d="M4406 4808 c3 -4 11 -5 19 -1 21 7 19 12 -4 10 -11 0 -18 -5 -15 -9z"/>
<path d="M4100 4757 c0 -15 29 -44 39 -39 3 1 6 -2 6 -7 0 -5 4 -13 9 -18 5
-5 6 -3 2 5 -9 15 6 16 22 0 7 -7 12 -10 12 -7 0 3 -20 22 -45 42 -28 24 -45
33 -45 24z"/>
<path d="M4553 4749 c-32 -12 -28 -17 10 -14 17 1 40 -2 50 -7 10 -6 21 -8 23
-6 11 11 -63 35 -83 27z"/>
<path d="M5862 4708 c6 -18 28 -21 28 -4 0 9 -7 16 -16 16 -9 0 -14 -5 -12
-12z"/>
<path d="M4219 4700 c-1 -5 -3 -14 -4 -20 -1 -5 -3 -13 -4 -16 0 -4 -9 0 -18
7 -16 13 -17 12 -4 -3 7 -10 17 -15 22 -13 4 3 12 -3 18 -12 10 -16 10 -16 8
4 -2 12 -6 25 -9 29 -4 3 -4 12 -1 20 3 8 2 14 -1 14 -3 0 -7 -4 -7 -10z"/>
<path d="M6098 4692 c-10 -2 -18 -8 -18 -13 0 -6 8 -5 20 1 11 6 20 8 20 5 0
-9 -114 -58 -132 -56 -22 3 -33 -17 -18 -34 6 -8 7 -16 2 -19 -6 -3 -12 1 -16
9 -3 8 -11 15 -18 15 -10 0 -10 -2 -1 -8 7 -4 11 -18 8 -30 l-4 -21 34 22 c19
12 34 27 32 32 -1 6 3 10 8 10 6 0 9 -4 7 -9 -2 -5 11 2 27 15 17 13 44 34 61
47 43 33 39 45 -12 34z m-54 -67 c-4 -8 -11 -12 -16 -9 -6 4 -5 10 3 15 19 12
19 11 13 -6z m-47 -19 c0 -8 -6 -12 -14 -9 -7 3 -13 9 -13 14 0 5 6 9 13 9 8
0 14 -6 14 -14z"/>
<path d="M4710 4683 c75 -25 103 -32 95 -24 -13 11 -74 31 -94 30 -13 0 -14
-1 -1 -6z"/>
<path d="M4850 4646 c0 -2 9 -6 20 -9 11 -3 18 -1 14 4 -5 9 -34 13 -34 5z"/>
<path d="M5363 4636 c-35 -7 -66 -16 -70 -21 -5 -4 6 -5 22 -1 17 3 55 11 85
17 30 6 57 13 59 15 7 7 -30 3 -96 -10z"/>
<path d="M4284 4618 c-4 -6 -2 -14 4 -16 7 -2 10 -7 7 -12 -3 -4 2 -11 10 -14
13 -5 14 -2 3 17 -7 12 -11 25 -10 30 3 11 -6 8 -14 -5z"/>
<path d="M5093 4613 c37 -2 96 -2 130 0 34 2 4 3 -68 3 -71 0 -99 -1 -62 -3z"/>
<path d="M5855 4550 c-3 -6 1 -7 9 -4 18 7 21 14 7 14 -6 0 -13 -4 -16 -10z"/>
<path d="M3355 4308 c-132 -133 -232 -236 -222 -228 10 7 40 36 68 64 28 28
52 50 55 49 2 -2 4 0 5 5 1 15 44 52 56 48 8 -3 10 1 6 12 -6 15 -5 16 12 2
11 -9 16 -10 11 -2 -4 7 -2 12 4 12 6 0 9 4 6 8 -7 11 40 53 49 44 3 -4 3 2
-1 13 -7 18 -6 19 12 5 18 -14 18 -14 4 4 -14 18 -13 19 2 13 13 -4 15 -2 11
10 -4 10 -2 14 5 9 6 -3 18 4 26 16 9 12 16 18 16 13 0 -6 5 -2 11 8 7 12 17
16 31 11 17 -5 20 -3 15 10 -7 17 -3 19 58 18 54 -1 55 -1 53 -9 -2 -5 2 -8 7
-8 6 0 9 4 7 9 -2 5 3 4 11 -3 9 -7 17 -8 19 -2 1 5 10 2 18 -7 13 -14 12 -15
-2 -10 -9 4 -19 1 -21 -6 -3 -8 0 -13 6 -13 17 2 87 -35 87 -45 0 -5 -6 -6
-12 -2 -10 6 -10 5 -1 -8 7 -8 10 -18 7 -21 -4 -3 5 -4 19 -2 19 4 24 1 23
-12 0 -10 6 -18 14 -18 8 0 16 -6 16 -12 1 -7 3 -16 4 -20 1 -5 2 -12 1 -17
-1 -5 4 -5 11 1 17 14 54 0 67 -26 14 -26 14 -34 -1 -25 -8 4 -10 3 -5 -2 5
-5 12 -9 15 -9 4 0 21 -9 38 -19 25 -15 29 -22 20 -31 -6 -7 -14 -11 -17 -9
-4 2 -12 -3 -19 -12 -11 -12 -15 -12 -22 -2 -7 10 -8 10 -5 -2 2 -8 10 -14 16
-12 12 2 15 -11 4 -21 -3 -4 -12 -2 -19 4 -9 7 -12 6 -9 -8 1 -10 -11 -34 -28
-53 -18 -19 4 0 48 42 l80 78 -205 205 c-113 113 -209 205 -215 205 -6 0 -118
-109 -250 -242z m275 167 c0 -5 -4 -4 -9 4 -6 9 -11 10 -15 2 -10 -16 -23 -14
-30 5 -5 14 -4 15 9 4 12 -10 16 -9 21 5 5 13 9 14 15 3 5 -7 9 -17 9 -23z
m167 -130 c0 -8 -4 -12 -9 -9 -5 3 -6 10 -3 15 9 13 12 11 12 -6z m83 -71 c0
-8 -19 -13 -24 -6 -3 5 1 9 9 9 8 0 15 -2 15 -3z"/>
<path d="M5915 4540 c-4 -6 -12 -10 -18 -9 -24 3 -34 -1 -34 -15 0 -13 4 -13
28 0 25 13 47 34 35 34 -3 0 -8 -5 -11 -10z"/>
<path d="M3500 4411 c0 -6 5 -13 10 -16 6 -3 10 1 10 9 0 9 -4 16 -10 16 -5 0
-10 -4 -10 -9z"/>
<path d="M3965 4150 c-3 -5 -1 -10 4 -10 6 0 11 5 11 10 0 6 -2 10 -4 10 -3 0
-8 -4 -11 -10z"/>
<path d="M3084 4038 l-19 -23 23 19 c12 11 22 21 22 23 0 8 -8 2 -26 -19z"/>
<path d="M3879 4033 c-13 -16 -12 -17 4 -4 16 13 21 21 13 21 -2 0 -10 -8 -17
-17z"/>
<path d="M2999 3953 c-18 -21 -25 -30 -13 -20 11 9 23 16 25 15 2 -2 3 -1 1 1
-1 2 5 13 15 23 9 10 14 18 12 18 -3 0 -21 -17 -40 -37z"/>
<path d="M3843 3983 c4 -4 -5 -19 -20 -35 -22 -23 -29 -26 -42 -15 -14 11 -14
10 -2 -5 12 -16 9 -22 -10 -20 -3 1 -6 -6 -6 -14 0 -9 20 5 48 32 42 41 53 64
32 64 -4 0 -3 -3 0 -7z"/>
<path d="M3724 3848 l-19 -23 23 19 c21 18 27 26 19 26 -2 0 -12 -10 -23 -22z"/>
<path d="M3644 3768 l-19 -23 23 19 c12 11 22 21 22 23 0 8 -8 2 -26 -19z"/>
<path d="M3569 3693 c-13 -16 -12 -17 4 -4 9 7 17 15 17 17 0 8 -8 3 -21 -13z"/>
</g>
</svg>
